/* XPM */
static char * red_xpm[] = {
"128 32 3 1",
" 	c None",
".	c #000000",
"+	c #FFFFFF",
"                                                                                                                                ",
"                                                                                                                                ",
"                                                                                                                                ",
"                                  ...............                                .........                                      ",
"                                  ................                               .........                                      ",
"                                  ..++++++++++++...                              .++++++..                                      ",
"                                  ..+++++++++++++...                             .++++++..                                      ",
"                                  ..++++++++++++++...                            .++++++..                                      ",
"                                  ..+++++++++++++++...   .........           .....++++++..                                      ",
"                                  ..++++++++++++++++..   ..........        .......++++++..                                      ",
"                                  ..++++++++++++++++..  ...++++++...     ....++++.++++++..                                      ",
"                                  ..++++++....++++++.. ..+++++++++...    ..++++++.++++++..                                      ",
"                                  ..++++++....++++++....++++++++++++.. ...+++++++.++++++..                                      ",
"                                  ..++++++..++++++++...++++++++++++++....++++++++.++++++..                                      ",
"                                  ..++++++.++++++++....++++++++++++++....++++++++.++++++..                                      ",
"                                  ..++++++.++++++++...+++++++..+++++++..+++++++++.++++++..                                      ",
"                                  ..++++++.+++++++....++++++....++++++..+++++++..+++++++..                                      ",
"                                  ..++++++.++++++... .++++++.+++++++++..++++++....++++++..                                      ",
"                                  ..++++++.+++++++.. .++++++.+++++++++..++++++....++++++..                                      ",
"                                  ..++++++.+++++++....++++++............++++++....++++++..                                      ",
"                                  ..++++++..+++++++...+++++++...........++++++++++++++++..                                      ",
"                                  ..++++++..+++++++....++++++++++...  ...++++++++++++++...                                      ",
"                                  ..++++++...+++++++...+++++++++++..   ..++++++++++++++.                                        ",
"                                  ..++++++...+++++++....++++++++++...   ..++++++++++++..                                        ",
"                                  ..++++++....++++++.....++++++++++..    ..++++++++++...                                        ",
"                                  ..++++++....+++++++..  ..+++++++...     ..++++++++...                                         ",
"                                  .....................  ...........       ...........                                          ",
"                                  .......... ..........    ........         ........                                            ",
"                                                                                                                                ",
"                                                                                                                                ",
"                                                                                                                                ",
"                                                                                                                                "};
